# xmcd CD database file
#
# Track frame offsets:
#	150
#	12699
#	25635
#	36226
#	46517
#	58005
#	73757
#	84540
#	95207
#	107461
#	119283
#	134053
#	148553
#	161880
#	175068
#
# Disc length: 2525 seconds
#
# Revision: 1
# Processed by: cddbd v1.5.1PL0 Copyright (c) Steve Scherf et al.
# Submitted via: CDex 1.51
#
DISCID=d109db0f
DTITLE=Varios - Nat King Cole
DYEAR=2000
DGENRE=Blues
TTITLE0=QUIZAS, QUIZAS, QUIZAS
TTITLE1=CACHITO
TTITLE2=PERFIDIA
TTITLE3=AY, COSITA LINDA
TTITLE4=VAYA CON DIOS
TTITLE5=ANSIEDAD
TTITLE6=EL BODEGUERO
TTITLE7=SUAS MAOS
TTITLE8=TEQUIERO, DIJISTE
TTITLE9=LAS CHIAPANECAS
TTITLE10=MONA LISA
TTITLE11=DEMASIADO JOVENES PARA AMAR
TTITLE12=TIERAMENTE
TTITLE13=SONRIE
TTITLE14=CUANDO ME ENAMORO
EXTD=2000 YEAR: 2000
EXTT0=
EXTT1=
EXTT2=
EXTT3=
EXTT4=
EXTT5=
EXTT6=
EXTT7=
EXTT8=
EXTT9=
EXTT10=
EXTT11=
EXTT12=
EXTT13=
EXTT14=
PLAYORDER=
